<svg width="33" height="15" viewBox="0 0 33 15" fill="none" xmlns="http://www.w3.org/2000/svg">
<rect x="0.5" y="0.5" width="14" height="14" rx="7" stroke="#0C171D" stroke-opacity="0.6"/>
<path d="M9.97159 6.07386H9.08523C9.05114 5.88447 8.98769 5.7178 8.89489 5.57386C8.80208 5.42992 8.68845 5.30777 8.55398 5.20739C8.41951 5.10701 8.26894 5.03125 8.10227 4.98011C7.9375 4.92898 7.76231 4.90341 7.5767 4.90341C7.24148 4.90341 6.94129 4.98769 6.67614 5.15625C6.41288 5.32481 6.20455 5.57197 6.05114 5.89773C5.89962 6.22348 5.82386 6.62121 5.82386 7.09091C5.82386 7.56439 5.89962 7.96402 6.05114 8.28977C6.20455 8.61553 6.41383 8.86174 6.67898 9.02841C6.94413 9.19508 7.24242 9.27841 7.57386 9.27841C7.75758 9.27841 7.93182 9.25379 8.09659 9.20455C8.26326 9.15341 8.41383 9.0786 8.5483 8.98011C8.68277 8.88163 8.7964 8.76136 8.8892 8.61932C8.9839 8.47538 9.04924 8.31061 9.08523 8.125L9.97159 8.12784C9.92424 8.41383 9.83239 8.67708 9.69602 8.91761C9.56155 9.15625 9.38826 9.36269 9.17614 9.53693C8.96591 9.70928 8.72538 9.8428 8.45455 9.9375C8.18371 10.0322 7.88826 10.0795 7.56818 10.0795C7.06439 10.0795 6.61553 9.96023 6.22159 9.72159C5.82765 9.48106 5.51705 9.13731 5.28977 8.69034C5.06439 8.24337 4.9517 7.71023 4.9517 7.09091C4.9517 6.4697 5.06534 5.93655 5.29261 5.49148C5.51989 5.04451 5.83049 4.7017 6.22443 4.46307C6.61837 4.22254 7.06629 4.10227 7.56818 4.10227C7.87689 4.10227 8.16477 4.14678 8.43182 4.2358C8.70076 4.32292 8.94223 4.4517 9.15625 4.62216C9.37027 4.79072 9.54735 4.99716 9.6875 5.24148C9.82765 5.4839 9.92235 5.76136 9.97159 6.07386Z" fill="#0C171D" fill-opacity="0.6"/>
<rect x="17.5" y="0.5" width="15" height="14" rx="7" stroke="#0C171D" stroke-opacity="0.6"/>
<path d="M22.7784 10L21.1648 4.18182H22.0881L23.2216 8.6875H23.2756L24.4545 4.18182H25.3693L26.5483 8.69034H26.6023L27.733 4.18182H28.6591L27.0426 10H26.1591L24.9347 5.64205H24.8892L23.6648 10H22.7784Z" fill="#0C171D" fill-opacity="0.6"/>
</svg>
